<svg width="24" height="25" viewBox="0 0 24 25" fill="none" xmlns="http://www.w3.org/2000/svg">
<path d="M18.39 15.5756C16.71 14.7156 14.53 14.0156 12 14.0156C9.47 14.0156 7.29 14.7156 5.61 15.5756C4.61 16.0856 4 17.1156 4 18.2356V21.0156H20V18.2356C20 17.1156 19.39 16.0856 18.39 15.5756ZM18 19.0156H6V18.2356C6 17.8556 6.2 17.5156 6.52 17.3556C7.71 16.7456 9.63 16.0156 12 16.0156C14.37 16.0156 16.29 16.7456 17.48 17.3556C17.8 17.5156 18 17.8556 18 18.2356V19.0156Z" fill="#202020"/>
<path d="M12 13.0156C14.21 13.0156 16 11.2256 16 9.01562C16 7.64563 16 5.51562 16 5.51562C16 4.68563 15.33 4.01562 14.5 4.01562C13.98 4.01562 13.52 4.28563 13.25 4.68563C12.98 4.28563 12.52 4.01562 12 4.01562C11.48 4.01562 11.02 4.28563 10.75 4.68563C10.48 4.28563 10.02 4.01562 9.5 4.01562C8.67 4.01562 8 4.68563 8 5.51562C8 5.51562 8 7.63562 8 9.01562C8 11.2256 9.79 13.0156 12 13.0156ZM10 6.51562H14V9.01562C14 10.1156 13.1 11.0156 12 11.0156C10.9 11.0156 10 10.1156 10 9.01562V6.51562Z" fill="#202020"/>
</svg>
